PathFileType	4	(X/Y/Z)	54_2_rein_88_p1_0-1068_filt_butterworth.trc
DataRate	CameraRate	NumFrames	NumMarkers	Units	OrigDataRate	OrigDataStartFrame	OrigNumFrames
60.0	60.0	4	27	m	60.0	0	1068
Frame#	Time	RHip			RKnee			RAnkle			RBigToe			RSmallToe			RHeel			LHip			LKnee			LAnkle			LBigToe			LSmallToe			LHeel			Neck			Head			Nose			RShoulder			RElbow			RWrist			RThumb			RIndex			RPinky			LShoulder			LElbow			LWrist			LThumb			LIndex			LPinky			
		X1	Y1	Z1	X2	Y2	Z2	X3	Y3	Z3	X4	Y4	Z4	X5	Y5	Z5	X6	Y6	Z6	X7	Y7	Z7	X8	Y8	Z8	X9	Y9	Z9	X10	Y10	Z10	X11	Y11	Z11	X12	Y12	Z12	X13	Y13	Z13	X14	Y14	Z14	X15	Y15	Z15	X16	Y16	Z16	X17	Y17	Z17	X18	Y18	Z18	X19	Y19	Z19	X20	Y20	Z20	X21	Y21	Z21	X22	Y22	Z22	X23	Y23	Z23	X24	Y24	Z24	X25	Y25	Z25	X26	Y26	Z26	X27	Y27	Z27	
0	0.0	0.2784009795389021	0.4724029485002177	0.9503648884426568	0.27664790916316273	0.5321516290644512	1.4528392805490133	0.2714579097046013	0.5522525584566607	1.9226460352957961	0.21361629505984522	0.34834087723077756	1.9356277300912055	0.2754504560542948	0.3940230568835326	1.9598476388168422	0.24914325242651467	0.6397043483414308	2.0042906083255896	0.06198268093802606	0.5323233022458044	0.95779938975172	0.07428997827975965	0.5604387333943203	1.4445091727536514	0.06241908386872793	0.5610987830518817	1.8922830733104083	0.0583543247386621	0.4073161428108153	1.9611349784820864	0.008277023416609307	0.4390296918299039	1.9720421751517974	0.08268269686524923	0.5991777222152985	1.9475609445218893	0.2078562082883625	0.5112153718704158	0.41386134858208495	0.20646493921542736	0.44079412447887967	0.15754431716070796	0.20144916344525043	0.38938536358787046	0.29938078753578234	0.361922122662048	0.49303552305905796	0.5004346114981064	0.40608531698202477	0.4917631774831796	0.7797846918925234	0.39484861923981274	0.34507254888847744	0.9678215482516985	0.3489949730798375	0.23752847790277665	1.0473080677297608	0.3784305071060841	0.18201187923233972	1.0639741031953585	0.39001105424380417	0.33720512350082577	1.1140385604908845	0.0385402174995254	0.5442599187793689	0.4771422434864797	-0.03325173463527452	0.5701817924324663	0.7617537544702732	-0.06807810225187995	0.5591972906459511	1.0385811412646724	-0.046866038531792366	0.544432359375488	1.1497575341038688	-0.06832282197388292	0.5404206790768915	1.1784502887240893	-0.12025773141505026	0.5575127046779217	1.158236384630798
1	0.0166666666666666	0.27641977334484313	0.48135615647356533	0.951844517523551	0.27881660641633454	0.5385225523797665	1.4548615631057769	0.27469530285529664	0.5444287775944793	1.9193264400512065	0.21268436900122364	0.34619522861337815	1.9342963619222346	0.27881576447504297	0.3957448267065769	1.9625729176770386	0.25245129735861144	0.6296855605664967	2.0008694986001645	0.05965530755741164	0.5399631885394793	0.9593863770634334	0.07447625751792976	0.5618040877442206	1.445473285498804	0.06459893808942266	0.5637269471476811	1.8913068560484336	0.0609582103063003	0.3972831612069123	1.9540758505177802	0.00831052908759117	0.4389042464503057	1.9717907156232606	0.08173331919886077	0.5968720281111901	1.9438811835399992	0.2078147921102662	0.5110959686976057	0.41386455040554476	0.20641862370960884	0.4410250725837805	0.15731284228191994	0.20150699939144734	0.38941353235489434	0.30019132236491697	0.3619086480168884	0.4930313845898867	0.5004222404709584	0.40638648602617256	0.49271118773602657	0.7793638930737736	0.3962084564552543	0.3396280442427439	0.9642478651436114	0.3581937365257168	0.21037130535247434	1.0334569448765636	0.3782799513176973	0.18051696377170964	1.0506253947242858	0.3950758733470237	0.3086901668866022	1.0916108423309565	0.038818668373921575	0.5453075156302155	0.47767561460044095	-0.034007244537553785	0.5677929815792176	0.7578977021521592	-0.06683267338275024	0.5604309737220489	1.0387684529005887	-0.04661959586863747	0.5443146501789577	1.1515889686924177	-0.0665695809102041	0.547925489156857	1.1814532045253077	-0.12206543879619382	0.5684730585356245	1.1625586236545589
2	0.0333333333333333	0.27600957473844484	0.48889060184121735	0.9524525447921818	0.27919937722813803	0.5402709841891165	1.45425577888097	0.27664131758568167	0.5396256472503516	1.9169686859785133	0.2119487714762634	0.34455898433695975	1.9333232553036064	0.2808464753614376	0.39674475697413775	1.964405848046121	0.2544857953182491	0.6236014955039054	1.99911773073331	0.058366867053594236	0.5446296405907027	0.9604304211394489	0.07466267986384403	0.5626009771695761	1.4465541176201535	0.06591155084596119	0.5653215626113075	1.890744967449902	0.06185697887906078	0.38912765520347886	1.9483451596100432	0.008320305555750945	0.43882087669669567	1.9716222015346663	0.08029095017673245	0.5981120085387421	1.9441695587697687	0.20779483957754952	0.5110559259737105	0.4138652216937171	0.20640177638224166	0.4411593733370787	0.1571983149505336	0.20155825538769423	0.38924464377321033	0.3002685802666029	0.36189928050783365	0.49302511064948584	0.5004088876510308	0.4076821382226142	0.49234409042558375	0.7783024318983803	0.39823456935955204	0.3314956795894464	0.959437398594931	0.3647392387866326	0.1906586011663903	1.021514531321881	0.3784436162834155	0.1772634762718669	1.0362194509890092	0.39973667728512735	0.2793011420009696	1.0710259943674219	0.039426718465705474	0.547744669436506	0.47850501795704725	-0.03428778418422196	0.5668651705549009	0.7558694954178525	-0.065630037562539	0.5616208436125074	1.0389332841859413	-0.04648353043598772	0.5444357607426785	1.1520355372063265	-0.06549699510860621	0.5524213801009233	1.183230404999881	-0.12230878265646943	0.57512456782207	1.1644426504690877
3	0.05	0.2773808526742936	0.49513194129602445	0.9524741660355388	0.2778658560232929	0.5376474193457323	1.4510362406191208	0.27704309489326734	0.5380457103991276	1.9158737120908929	0.211353723212946	0.34288420317544316	1.9329680712722828	0.28144389402921255	0.3969581468441463	1.965434521054641	0.25499055146806876	0.622343887830351	1.9998484572781292	0.05812429479723544	0.5461416504662341	0.9607880825695163	0.07487784801049029	0.5628250601963222	1.4482280996694978	0.06628372316469273	0.5657992714858943	1.8906158403155475	0.060894842193019195	0.38345883328121355	1.9443415807088553	0.008293461238543645	0.43878423487090423	1.971597971560365	0.07849483338149013	0.6024739867217163	1.9481016922071839	0.2077959231498895	0.5110893834316409	0.413863177771287	0.20641189824394396	0.4411829139155002	0.15719614114670288	0.20151600638579092	0.3892521666312121	0.2998615775039603	0.3618931896682388	0.493002025271966	0.5003876547507649	0.4099472914861765	0.4896373429017714	0.7770584368165445	0.4007562036915292	0.32139511874669613	0.9538818140678372	0.3682570443374445	0.18081280796175594	1.0126260342247624	0.37893229594756545	0.17294131078306665	1.022130983507784	0.4029411060167622	0.2542501907309409	1.0544304335576418	0.04028494851283842	0.5511900092667817	0.47924364718593937	-0.033962728876990866	0.5677199221809467	0.7555936489507851	-0.06478117417752902	0.562407897360023	1.0389868052042146	-0.046461216040908665	0.5447350122281093	1.1511615702895934	-0.06515557393255651	0.5537407498053878	1.1837079380458086	-0.12077265597342507	0.5767243952413638	1.1642474416534438
